<svg xmlns="http://www.w3.org/2000/svg" xmlns:xlink="http://www.w3.org/1999/xlink" xmlns:lucid="lucid" width="4500" height="4000"><g transform="translate(500 1000)" lucid:page-tab-id="0_0"><path d="M-500-1000h4500v4000H-500z" fill="#fff"/><path d="M893.14-520.57a7.8 7.8 0 0 1 7.54-5.8h565.95a4.6 4.6 0 0 1 4.45 5.8l-70.25 263.47a7.8 7.8 0 0 1-7.55 5.8H827.33a4.6 4.6 0 0 1-4.45-5.8z" stroke="#3a414a" stroke-width="4" fill="#00c2a8"/><use xlink:href="#a" transform="matrix(1,0,0,1,826.3310773944235,-521.368688056602) translate(239.29427083333331 151.46354166666666)"/><path d="M1152.27 483.43a8.6 8.6 0 0 1 9.84 0l291.02 202.77a4.18 4.18 0 0 1 0 6.86l-291 202.77a8.6 8.6 0 0 1-9.85 0L861.25 693.06a4.18 4.18 0 0 1 0-6.86z" stroke="#1071e5" stroke-width="4" fill="#fff"/><use xlink:href="#b" transform="matrix(1,0,0,1,861.328125,485) translate(167.875 192.421875)"/><use xlink:href="#c" transform="matrix(1,0,0,1,861.328125,485) translate(103.72135416666669 254.50520833333334)"/><path d="M832.66 1526a6 6 0 0 1 6-6H1474a6 6 0 0 1 6 6v308a6 6 0 0 1-6 6H838.66a6 6 0 0 1-6-6z" stroke="#3a414a" stroke-width="4" fill="#6db1ff"/><use xlink:href="#b" transform="matrix(1,0,0,1,837.65625,1525) translate(190.875 142.421875)"/><use xlink:href="#d" transform="matrix(1,0,0,1,837.65625,1525) translate(26.98177083333337 204.50520833333334)"/><path d="M1354.18 2040c71.8 0 130 58.2 130 130s-58.2 130-130 130h-395.7c-71.8 0-130-58.2-130-130s58.2-130 130-130z" stroke="#3a414a" stroke-width="4" fill="#ff80df"/><use xlink:href="#e" transform="matrix(1,0,0,1,840.4784586591098,2052) translate(16.898437499999943 136.46354166666666)"/><path d="M1156.35-246.8v101.24h-.02v78.9" stroke="#3a414a" stroke-width="5" fill="none"/><path d="M1158.82-246.74h-4.95v-2.56h4.95z" stroke="#3a414a" stroke-width=".05" fill="#3a414a"/><path d="M1156.33-49.9l-4.64-14.27h9.26z" stroke="#3a414a" stroke-width="5" fill="#3a414a"/><path d="M1156.33 1844.5v168.64" stroke="#3a414a" stroke-width="5" fill="none"/><path d="M1158.8 1844.56h-4.95V1842h4.95z" stroke="#3a414a" stroke-width=".05" fill="#3a414a"/><path d="M1156.33 2029.9l-4.64-14.26h9.26z" stroke="#3a414a" stroke-width="5" fill="#3a414a"/><path d="M854.38 1076.74a6 6 0 0 1 6-6H1454a6 6 0 0 1 6 6V1380c-101.14-51.65-164.12-51.65-202.28-51.65-60.56 0-141.1 51.65-201.67 51.65-37.55 0-101.14 0-201.67-51.65z" stroke="#3a414a" stroke-width="4" fill="#9391ff"/><use xlink:href="#b" transform="matrix(1,0,0,1,859.375,1075.7429511843616) translate(169.875 111.421875)"/><use xlink:href="#f" transform="matrix(1,0,0,1,859.375,1075.7429511843616) translate(46.893229166666686 173.50520833333334)"/><path d="M2592.46 1108.7a12 12 0 0 1 12-12h910.68a12 12 0 0 1 12 12v1105.05a12 12 0 0 1-12 12h-910.68a12 12 0 0 1-12-12z" stroke="#dfe3e8" stroke-width="2" fill="#fff"/><path d="M2685.53 1247.4c.28-1.06 1.2-1.77 2.32-1.77h35.7c.78 0 1.4.63 1.4 1.42 0 .13 0 .24-.03.37l-8.9 33.35c-.3 1.07-1.22 1.78-2.32 1.78H2678c-.78 0-1.4-.63-1.4-1.4 0-.14 0-.25.03-.38z" stroke="#3a414a" stroke-width="1.05" fill="#00c2a8"/><path d="M2725.4 1395.38c0 2.72-11.03 4.92-24.63 4.92s-24.6-2.2-24.6-4.92v-39.4c0-2.7 11-4.9 24.6-4.9 13.6 0 24.62 2.2 24.62 4.9z" stroke="#3a414a" stroke-width="1.05" fill="#b8f5ed"/><path d="M2725.4 1356c0 2.7-11.03 4.9-24.63 4.9s-24.6-2.2-24.6-4.9" stroke="#3a414a" stroke-width="1.05" fill="none"/><path d="M2676.16 1471.28c0-1.36 1.1-2.47 2.46-2.47h39.4c1.34 0 2.45 1.12 2.45 2.48v28.92c-7.4-5.24-12-5.24-14.8-5.24-4.43 0-10.33 5.24-14.76 5.24-2.73 0-7.4 0-14.74-5.24z" stroke="#282c33" stroke-width="1.05" fill="#ffe342"/><path d="M2678.62 1474.05c0-1.37 1.1-2.47 2.46-2.47h39.4c1.35 0 2.45 1.1 2.45 2.47v28.92c-7.4-5.24-12-5.24-14.8-5.24-4.43 0-10.33 5.24-14.76 5.24-2.74 0-7.4 0-14.75-5.24z" stroke="#282c33" stroke-width="1.05" fill="#ffe342"/><path d="M2681.08 1476.8c0-1.35 1.1-2.45 2.46-2.45h39.4c1.35 0 2.45 1.1 2.45 2.46v28.94c-7.4-5.24-12.02-5.24-14.8-5.24-4.44 0-10.33 5.24-14.76 5.24-2.75 0-7.4 0-14.76-5.24z" stroke="#282c33" stroke-width="1.05" fill="#ffe342"/><path d="M2684.84 1582.58c.74-1.38 2.07-2.17 3.63-2.17h32c2.72 0 4.92 8.27 4.92 18.47s-2.2 18.46-4.93 18.46h-32c-1.56 0-2.9-.8-3.63-2.17l-7.52-14.12c-.75-1.4-.75-2.94 0-4.34z" stroke="#3a414a" fill="#b8f5ed"/><path d="M2699.3 1693.1c.9-.66 2.06-.66 2.95 0l21.66 16.25c.63.46.75 1.33.3 1.94-.1.1-.18.18-.3.27l-21.65 16.24c-.9.68-2.06.68-2.95 0l-21.66-16.23c-.62-.46-.74-1.33-.28-1.94.08-.1.16-.2.28-.28z" stroke="#1071e5" stroke-width="1.05" fill="#fff"/><path d="M2676.16 1805.44c0-1.02.83-1.85 1.84-1.85h45.54c1.02 0 1.85.82 1.85 1.84v35.07c-8.23-6.15-13.35-6.15-16.45-6.15-4.93 0-11.47 6.16-16.4 6.16-3.05 0-8.22 0-16.4-6.15z" stroke="#3a414a" fill="#9391ff"/><path d="M2676.16 1917.03c0-1.02.83-1.85 1.84-1.85h45.54c1.02 0 1.85.83 1.85 1.85v33.23c0 1.02-.84 1.85-1.86 1.85H2678c-1 0-1.84-.82-1.84-1.84z" stroke="#3a414a" fill="#6db1ff"/><path d="M2713.08 2032.93c6.8 0 12.3 5.5 12.3 12.3 0 6.8-5.5 12.3-12.3 12.3h-24.6c-6.8 0-12.32-5.5-12.32-12.3 0-6.8 5.5-12.3 12.3-12.3z" stroke="#3a414a" stroke-width="1.05" fill="#ff80df"/><use xlink:href="#g" transform="matrix(1,0,0,1,2671.2351272587784,1155.7826680564708) translate(0 38)"/><use xlink:href="#h" transform="matrix(1,0,0,1,2759.852126413222,1234.5533339715314) translate(0 52.22222222222222)"/><use xlink:href="#i" transform="matrix(1,0,0,1,2759.852126413222,1234.5533339715314) translate(101.71604938271606 52.22222222222222)"/><use xlink:href="#j" transform="matrix(1,0,0,1,2759.852126413222,1346.145110684534) translate(0 52.22222222222222)"/><use xlink:href="#k" transform="matrix(1,0,0,1,2759.852126413222,1346.145110684534) translate(144.23456790123458 52.22222222222222)"/><use xlink:href="#l" transform="matrix(1,0,0,1,2759.852126413222,1457.736887397537) translate(0 52.22222222222222)"/><use xlink:href="#m" transform="matrix(1,0,0,1,2759.852126413222,1569.3286641105396) translate(0 52.22222222222222)"/><use xlink:href="#n" transform="matrix(1,0,0,1,2759.852126413222,1680.9204408235423) translate(0 52.22222222222222)"/><use xlink:href="#o" transform="matrix(1,0,0,1,2759.852126413222,1792.512217536545) translate(0 52.22222222222222)"/><use xlink:href="#p" transform="matrix(1,0,0,1,2759.852126413222,1904.1039942495477) translate(0 52.22222222222222)"/><use xlink:href="#q" transform="matrix(1,0,0,1,2759.852126413222,1904.1039942495477) translate(230.39506172839506 52.22222222222222)"/><use xlink:href="#r" transform="matrix(1,0,0,1,2759.852126413222,2015.6957709625503) translate(0 52.22222222222222)"/><use xlink:href="#s" transform="matrix(1,0,0,1,2759.852126413222,2015.6957709625503) translate(232.03703703703704 52.22222222222222)"/><use xlink:href="#t" transform="matrix(1,0,0,1,2759.852126413222,2015.6957709625503) translate(462.4320987654321 52.22222222222222)"/><path d="M1445.35 247.85c0 17.65-129.4 31.96-289.02 31.96-159.62 0-289.02-14.3-289.02-31.95V-7.85c0-17.65 129.4-31.96 289.03-31.96 159.62 0 289.02 14.3 289.02 31.95z" stroke="#3a414a" stroke-width="4" fill="#b8f5ed"/><path d="M1445.35-7.85c0 17.65-129.4 31.96-289.02 31.96C996.7 24.1 867.3 9.8 867.3-7.84" stroke="#3a414a" stroke-width="4" fill="none"/><use xlink:href="#u" transform="matrix(1,0,0,1,872.3046875,29.11362336577904) translate(35.8671875 141.46354166666666)"/><use xlink:href="#v" transform="matrix(1,0,0,1,872.3046875,29.11362336577904) translate(277.0390625 141.46354166666666)"/><path d="M1158.16 461.38h-1.95v-62.43h1.96zm-.86-98.64h-1.95V282.8h1.95z" stroke="#54c45e" stroke-width=".05" fill="#54c45e"/><path d="M1156.32 281.8h.98v1.04h-1.95v-1.05z" fill="#54c45e"/><path stroke="#54c45e" stroke-width=".05" fill="#54c45e"/><path d="M1157.2 476.64l-4.65-14.26h9.27z" fill="#54c45e"/><path d="M1157.2 479.8l-6-18.4h11.96zm-3.3-16.45l3.3 10.14 3.28-10.15z" stroke="#54c45e" stroke-width=".05" fill="#54c45e"/><use xlink:href="#w" transform="matrix(1,0,0,1,1130.5989583333333,362.7379648794718) translate(0 28.878038194444446)"/><path d="M100-52a8 8 0 0 1 8-8h416a8 8 0 0 1 8 8v273.3c-72.14-47-117.07-47-144.3-47-43.2 0-100.64 47-143.84 47-26.8 0-72.15 0-143.86-47z" stroke="#3a414a" fill="#b8f5ed"/><path d="M124-27.18a8 8 0 0 1 8-8h416a8 8 0 0 1 8 8v273.3c-72.14-47-117.07-47-144.3-47-43.2 0-100.64 47-143.84 47-26.8 0-72.15 0-143.86-47z" stroke="#3a414a" fill="#b8f5ed"/><path d="M148-2.36a8 8 0 0 1 8-8h416a8 8 0 0 1 8 8v273.3c-72.14-47-117.07-47-144.3-47-43.2 0-100.64 47-143.84 47-26.8 0-72.15 0-143.86-47z" stroke="#3a414a" fill="#b8f5ed"/><use xlink:href="#x" transform="matrix(1,0,0,1,153,-5.360971633414884) translate(23.3828125 130.96354166666666)"/><path d="M721.7 124.9l-.36.1-.43.04H599v-1.95h121.83l.2-.03.17-.04.15-.06.14-.1.12-.1.1-.1zm142.6-3.93H765v-1.94h99.3z" stroke="#fe7070" stroke-width=".05" fill="#fe7070"/><path d="M865.3 120.97h-1.02v-1.94h1.02z" fill="#fe7070"/><path stroke="#fe7070" stroke-width=".05" fill="#fe7070"/><path d="M598 128.7l-14.26-4.64 14.26-4.64z" fill="#fe7070"/><path d="M598.98 130.04l-18.4-5.98 18.4-5.98zm-12.1-5.98l10.15 3.3v-6.6z" stroke="#fe7070" stroke-width=".05" fill="#fe7070"/><use xlink:href="#y" transform="matrix(1,0,0,1,721.7127381777896,101.89236111111111) translate(0 28.878038194444446)"/><path d="M1157.2 901.88v142" stroke="#3a414a" stroke-width="5" fill="none"/><path d="M1155.9 899.3l1.3.08 1.28-.08 1.18-.22v2.86h-4.95v-2.86z" stroke="#3a414a" stroke-width=".05" fill="#3a414a"/><path d="M1157.2 1060.65l-4.65-14.26h9.27z" stroke="#3a414a" stroke-width="5" fill="#3a414a"/><path d="M1157.2 1358.44v78.1a.43.43 0 0 1-.44.43.43.43 0 0 0-.43.43v55.74" stroke="#3a414a" stroke-width="5" fill="none"/><path d="M1159.66 1358.5h-4.95v-1.7l4.96-1.72z" stroke="#3a414a" stroke-width=".05" fill="#3a414a"/><path d="M1156.33 1509.9l-4.64-14.26h9.26z" stroke="#3a414a" stroke-width="5" fill="#3a414a"/><path d="M1811.03 549.8a16.57 16.57 0 0 1 12.97-6.28h332a16.57 16.57 0 0 1 12.97 6.27l106.06 133.56a10.08 10.08 0 0 1 0 12.53l-106.06 133.57a16.57 16.57 0 0 1-12.97 6.26h-332a16.57 16.57 0 0 1-12.97-6.26L1704.97 695.9a10.08 10.08 0 0 1 0-12.54z" stroke="#3a414a" stroke-width="4" fill="#b8f5ed"/><use xlink:href="#z" transform="matrix(1,0,0,1,1705,548.5232085349477) translate(156.875 97.88020833333334)"/><use xlink:href="#A" transform="matrix(1,0,0,1,1705,548.5232085349477) translate(151.61458333333334 159.96354166666669)"/><use xlink:href="#B" transform="matrix(1,0,0,1,1705,548.5232085349477) translate(78.125 222.04687500000003)"/><path d="M1698.3 689.63h-216.52" stroke="#3a414a" stroke-width="5" fill="none"/><path d="M1700.9 688l-.12 1.63.1 1.62.2.85h-2.86v-4.95h2.85z" stroke="#3a414a" stroke-width=".05" fill="#3a414a"/><path d="M1465 689.63l14.28-4.64v9.26z" stroke="#3a414a" stroke-width="5" fill="#3a414a"/><path d="M340.98 683.6l.06.8.18.78.3.73.42.68.5.6.6.5.68.42.73.3.76.2.84.05H357v1.95h-11.04l-1.05-.08-1.06-.25-1-.42-.94-.58-.83-.7-.7-.84-.6-.93-.4-1-.26-1.08-.08-1.05V259.5h1.96zm497.97 5.05v1.95H409.32v-1.95z" stroke="#54c45e" stroke-width=".05" fill="#54c45e"/><path d="M340.98 259.52h-1.96v-.6l1.96-.86z" fill="#54c45e"/><path stroke="#54c45e" stroke-width=".05" fill="#54c45e"/><path d="M854.2 689.63l-14.25 4.63V685z" fill="#54c45e"/><path d="M857.37 689.63l-18.4 5.98v-11.95zm-16.45 3.3l10.14-3.3-10.14-3.3z" stroke="#54c45e" stroke-width=".05" fill="#54c45e"/><use xlink:href="#w" transform="matrix(1,0,0,1,356.99921734874584,671.5208855189303) translate(0 28.878038194444446)"/><path d="M1152.27 2522.57a8.58 8.58 0 0 1 9.84 0l317.34 221.9a4.2 4.2 0 0 1 0 6.86l-317.34 221.9a8.58 8.58 0 0 1-9.83 0l-317.33-221.9a4.2 4.2 0 0 1 0-6.87z" stroke="#282c33" stroke-width="2" fill="#ffe342"/><use xlink:href="#C" transform="matrix(1,0,0,1,835.020817418539,2524.1325873319715) translate(41.966145833333314 242.46354166666669)"/><use xlink:href="#D" transform="matrix(1,0,0,1,835.020817418539,2524.1325873319715) translate(204.38802083333331 242.46354166666669)"/><path d="M1156.33 2304.5v106.08a.43.43 0 0 0 .43.43.43.43 0 0 1 .43.44v83.72" stroke="#3a414a" stroke-width="5" fill="none"/><path d="M1158.8 2304.56h-4.95V2302h4.95z" stroke="#3a414a" stroke-width=".05" fill="#3a414a"/><path d="M1157.2 2511.93l-4.65-14.27h9.27z" stroke="#3a414a" stroke-width="5" fill="#3a414a"/><path d="M219.66 2493.35V2182a12 12 0 0 1 12-12H824" stroke="#3a414a" stroke-width="5" fill="none"/><path d="M219.66 2503.8l-7.63-12.92h15.27z" stroke="#3a414a" stroke-width="5" fill="#3a414a"/><path d="M826.48 2170l.02 2.47h-2.6v-4.94h2.63z" stroke="#3a414a" stroke-width=".05" fill="#3a414a"/><path d="M-109.65 2515.2a6 6 0 0 1 6-6h580.77a6 6 0 0 1 6 6v371.94c-99-63.12-160.64-63.12-198-63.12-59.26 0-138.1 63.12-197.38 63.12-36.75 0-99 0-197.4-63.12z" stroke="#3a414a" fill="#6db1ff"/><path d="M-76.72 2548.55a6 6 0 0 1 6-6h580.77a6 6 0 0 1 6 6v371.93c-99-63.1-160.64-63.1-198-63.1-59.26 0-138.1 63.1-197.38 63.1-36.75 0-99 0-197.4-63.1z" stroke="#3a414a" fill="#6db1ff"/><path d="M-43.8 2581.9a6 6 0 0 1 6-6H543a6 6 0 0 1 6 6v371.93c-99-63.1-160.64-63.1-198-63.1-59.26 0-138.1 63.1-197.38 63.1-36.75 0-99 0-197.4-63.1z" stroke="#3a414a" fill="#6db1ff"/><g><use xlink:href="#E" transform="matrix(1,0,0,1,-38.78739303876017,2580.892975547039) translate(3.6354166666666288 139.921875)"/><use xlink:href="#F" transform="matrix(1,0,0,1,-38.78739303876017,2580.892975547039) translate(405.35416666666663 139.921875)"/><use xlink:href="#G" transform="matrix(1,0,0,1,-38.78739303876017,2580.892975547039) translate(106.68229166666666 202.00520833333334)"/></g><defs><path d="M684-1354c-96-5-172 9-170 99 1 31 13 83 21 110 73 271 165 523 217 815 18-88 40-159 65-241l270-877h150c105 293 216 584 317 880 27 79 49 160 66 242 58-313 149-602 208-910 21-108-66-124-177-118v-108h534v108c-89-7-140 16-165 78-8 21-20 48-29 82L1673 0h-233l-344-961L801 0H547L172-1245c-19-78-68-117-172-109v-108h684v108" id="H"/><path d="M1370-90C1220-22 1072 20 866 20c-492 0-753-265-753-753 0-363 164-592 433-695 241-92 683-73 811 90 57 72 27 178-36 216-50 30-114 51-197 51-2-174-80-281-254-281-337 0-413 275-413 619 0 354 90 613 440 614 54 0 105-4 150-14v-301c2-116-57-150-173-146v-108h644v108c-113-11-148 47-148 154v336" id="I"/><path d="M248-1223c1-83-28-131-107-131H57v-108c347 13 826-44 1037 90 97 62 147 154 147 282 0 190-114 265-258 312v10c178 49 320 147 320 367 0 135-49 235-147 301S912 0 717 0H57v-109h84c83 3 107-49 107-133v-981zm710 815c0-188-59-298-247-294H571v577h136c187 6 251-95 251-283zm-61-682c0-177-76-253-252-247h-74v510h78c181 6 248-82 248-263" id="J"/><path d="M571-1358c-151-6-245 124-188 270 69 176 346 212 503 314 119 77 212 161 212 346 0 232-143 355-326 415-190 62-490 28-608-60-76-57-135-174-84-282 33-69 111-102 213-102 4 206 81 355 280 355 151 0 254-75 254-222 0-135-93-184-191-234-232-119-539-172-534-513 3-214 133-332 302-383 213-65 522-27 610 116 45 73 23 177-36 214-47 29-110 49-190 49-8-151-64-277-217-283" id="K"/><g id="a"><use transform="matrix(0.026041666666666668,0,0,0.026041666666666668,0,0)" xlink:href="#H"/><use transform="matrix(0.026041666666666668,0,0,0.026041666666666668,55.3125,0)" xlink:href="#I"/><use transform="matrix(0.026041666666666668,0,0,0.026041666666666668,96.328125,0)" xlink:href="#J"/><use transform="matrix(0.026041666666666668,0,0,0.026041666666666668,132.16145833333334,0)" xlink:href="#K"/></g><path d="M573-242c-1 84 23 133 105 133h86V0H57v-109h86c83 3 106-49 105-133v-978c1-84-22-133-105-133H57v-109h707v109h-86c-82-2-106 49-105 133v978" id="L"/><path d="M1702-242c-1 84 22 133 104 133h86V0h-655v-109c97 6 149-18 149-114v-1037L973 0H834L401-1260v1018c-4 107 56 139 164 133V0H57v-109h86c79 3 105-42 105-122v-998c1-82-26-125-105-125H57v-108h590l340 989 326-989h579v108h-86c-82-2-105 49-104 133v979" id="M"/><path d="M866-109c86 4 168 3 168-79 1-32-10-65-18-88l-72-205H446c-28 97-84 180-84 293 0 85 91 82 179 79V0H8v-109c122 10 157-61 189-149l444-1204h281l428 1206c31 88 67 157 192 147V0H866v-109zm37-497c-67-212-140-417-194-643-69 219-146 429-220 643h414" id="N"/><path d="M571-231c-1 80 27 122 105 122h88V0H57v-109h86c78 2 105-42 105-122v-998c1-81-27-125-105-125H57v-108h660c193 0 335 32 425 97s136 159 136 282c0 215-126 322-279 387l244 420c54 79 90 162 213 167V0c-184 1-347 0-436-91-24-25-49-55-70-93L707-635H571v404zm363-824c0-187-65-291-252-286H571v587h115c189 4 248-113 248-301" id="O"/><path d="M678-1354c-83-3-108 49-107 133v478c124-137 254-270 373-411 34-40 62-77 62-142 0-58-46-57-115-60v-106h555v106c-148 8-219 96-295 180L881-879l381 605c59 86 104 164 241 165V0c-191 0-383 7-483-82-34-30-57-65-82-106L662-659l-91 71v346c-1 84 24 133 107 133h86V0H57v-109h86c79 3 105-42 105-122v-998c1-82-26-125-105-125H57v-108h707v108h-86" id="P"/><g id="b"><use transform="matrix(0.026041666666666668,0,0,0.026041666666666668,0,0)" xlink:href="#J"/><use transform="matrix(0.026041666666666668,0,0,0.026041666666666668,35.833333333333336,0)" xlink:href="#L"/><use transform="matrix(0.026041666666666668,0,0,0.026041666666666668,57.21354166666667,0)" xlink:href="#K"/><use transform="matrix(0.026041666666666668,0,0,0.026041666666666668,88.46354166666667,0)" xlink:href="#M"/><use transform="matrix(0.026041666666666668,0,0,0.026041666666666668,139.24479166666669,0)" xlink:href="#N"/><use transform="matrix(0.026041666666666668,0,0,0.026041666666666668,179.40104166666669,0)" xlink:href="#O"/><use transform="matrix(0.026041666666666668,0,0,0.026041666666666668,217.109375,0)" xlink:href="#P"/></g><path d="M754-1452c-227 146-308 431-308 801 0 371 81 658 308 805v131C374 131 117-129 117-651c0-520 258-779 637-930v129" id="Q"/><path d="M678-1354c-79-2-106 44-105 125v1104h381c170 0 166-193 203-332h115L1257 0H57v-109h86c83 3 106-49 105-133v-979c1-84-22-133-105-133H57v-108h707v108h-86" id="R"/><path d="M1493-1354c-81-2-104 49-104 133V0h-189L401-1128v886c0 84 23 133 105 133h86V0H57v-109h86c82 2 105-49 105-133v-987c1-81-27-125-105-125H57v-108h455l723 1022v-789c1-81-27-125-105-125h-86v-108h535v108h-86" id="S"/><path d="M248-1221c1-84-22-133-105-133H57v-108h1137l8 377h-143c-13-120-11-252-141-252H573v512h486v123H573v577h410c128-4 125-141 147-252h142L1257 0H57v-109h86c79 3 105-42 105-122v-990" id="T"/><path d="M401-109c83 3 106-49 105-133v-1095c-128 5-285-27-320 84-17 54-19 125-28 188H20l11-397h1276l10 397h-137c-16-108-6-236-108-262-64-16-162-7-241-10v1095c-1 84 23 133 105 133h86V0H315v-109h86" id="U"/><path d="M66 154C294 8 373-280 373-651c0-370-80-655-307-801v-129c380 152 636 409 636 930 0 523-257 783-636 936V154" id="V"/><g id="c"><use transform="matrix(0.026041666666666668,0,0,0.026041666666666668,0,0)" xlink:href="#Q"/><use transform="matrix(0.026041666666666668,0,0,0.026041666666666668,21.328125,0)" xlink:href="#N"/><use transform="matrix(0.026041666666666668,0,0,0.026041666666666668,61.484375,0)" xlink:href="#R"/><use transform="matrix(0.026041666666666668,0,0,0.026041666666666668,96.35416666666667,0)" xlink:href="#L"/><use transform="matrix(0.026041666666666668,0,0,0.026041666666666668,117.734375,0)" xlink:href="#I"/><use transform="matrix(0.026041666666666668,0,0,0.026041666666666668,158.75,0)" xlink:href="#S"/><use transform="matrix(0.026041666666666668,0,0,0.026041666666666668,200.78125,0)" xlink:href="#M"/><use transform="matrix(0.026041666666666668,0,0,0.026041666666666668,251.5625,0)" xlink:href="#T"/><use transform="matrix(0.026041666666666668,0,0,0.026041666666666668,286.3802083333333,0)" xlink:href="#S"/><use transform="matrix(0.026041666666666668,0,0,0.026041666666666668,328.4114583333333,0)" xlink:href="#U"/><use transform="matrix(0.026041666666666668,0,0,0.026041666666666668,363.22916666666663,0)" xlink:href="#V"/></g><path d="M1430-231c-1 79 26 122 104 122h86V0H913v-109h88c82 2 105-49 105-133v-458H571v458c0 83 23 133 105 133h88V0H57v-109h86c82 2 105-49 105-133v-986c1-81-27-125-105-125H57v-109h707v109h-88c-82-2-105 50-105 133v395h535v-395c1-84-23-133-105-133h-88v-109h707v109h-86c-81-2-104 49-104 133v989" id="W"/><path d="M51-451v-215h533v215H51" id="X"/><path d="M741-1354c-63 1-127 4-127 60 0 44 31 86 54 120l170 254c71-105 150-199 214-312 12-23 19-43 19-62-3-57-62-59-121-60v-108h480v108c-127-5-166 72-222 148L911-801l377 584c46 72 90 109 191 108V0H803v-109c109 5 162-39 121-116-70-130-165-252-244-377L459-303c-21 30-55 77-53 125 3 61 55 69 131 69V0H20v-109c125 4 171-71 226-143l358-467c-124-191-242-387-372-573-32-46-86-67-169-62v-108h678v108" id="Y"/><path d="M457-733c0 340 76 592 413 590 189-1 297-89 379-195 43 38 45 120 12 178-72 126-231 182-440 180-475-5-708-280-708-753 0-354 144-589 399-695 222-92 634-71 745 90 51 74 23 182-37 220-47 30-110 51-190 51-4-161-63-285-225-285-310 0-348 300-348 619" id="Z"/><path d="M113-735c0-470 225-750 696-750 351 0 554 176 645 443 60 178 61 438 0 617-92 268-294 445-647 445-471 0-694-285-694-755zm533-575c-200 121-216 527-170 839 29 198 110 358 331 358 307 0 348-302 348-620 0-257-33-477-185-577-82-56-239-51-324 0" id="aa"/><g id="d"><use transform="matrix(0.026041666666666668,0,0,0.026041666666666668,0,0)" xlink:href="#Q"/><use transform="matrix(0.026041666666666668,0,0,0.026041666666666668,21.328125,0)" xlink:href="#M"/><use transform="matrix(0.026041666666666668,0,0,0.026041666666666668,72.109375,0)" xlink:href="#T"/><use transform="matrix(0.026041666666666668,0,0,0.026041666666666668,106.92708333333334,0)" xlink:href="#U"/><use transform="matrix(0.026041666666666668,0,0,0.026041666666666668,141.74479166666669,0)" xlink:href="#W"/><use transform="matrix(0.026041666666666668,0,0,0.026041666666666668,185.41666666666669,0)" xlink:href="#X"/><use transform="matrix(0.026041666666666668,0,0,0.026041666666666668,201.95312500000003,0)" xlink:href="#T"/><use transform="matrix(0.026041666666666668,0,0,0.026041666666666668,236.7708333333334,0)" xlink:href="#Y"/><use transform="matrix(0.026041666666666668,0,0,0.026041666666666668,275.8072916666667,0)" xlink:href="#U"/><use transform="matrix(0.026041666666666668,0,0,0.026041666666666668,310.625,0)" xlink:href="#O"/><use transform="matrix(0.026041666666666668,0,0,0.026041666666666668,347.265625,0)" xlink:href="#N"/><use transform="matrix(0.026041666666666668,0,0,0.026041666666666668,386.3541666666667,0)" xlink:href="#Z"/><use transform="matrix(0.026041666666666668,0,0,0.026041666666666668,422.5,0)" xlink:href="#U"/><use transform="matrix(0.026041666666666668,0,0,0.026041666666666668,457.31770833333337,0)" xlink:href="#L"/><use transform="matrix(0.026041666666666668,0,0,0.026041666666666668,478.6979166666666,0)" xlink:href="#aa"/><use transform="matrix(0.026041666666666668,0,0,0.026041666666666668,520.6770833333333,0)" xlink:href="#S"/><use transform="matrix(0.026041666666666668,0,0,0.026041666666666668,562.7083333333333,0)" xlink:href="#V"/></g><path d="M733-1462c467 5 725 237 725 704 0 360-150 596-410 702C958-19 852 0 733 0H57v-109h86c83 3 106-49 105-133v-987c1-82-26-125-105-125H57v-108h676zm379 704c0-195-36-341-108-436s-177-143-316-143H571v1210c120 2 220 3 300-43 173-99 240-314 241-588" id="ab"/><path d="M952-299c53 28 65 116 26 173C912-25 777 20 604 20 249 20 96-183 96-545c0-366 147-579 502-579 170 0 310 34 380 130 46 63 27 167-26 205-49 36-119 55-213 54-1-102-14-196-69-243-36-31-106-28-144 0-103 75-114 241-114 431 0 139 19 242 57 311s100 103 186 103c149 0 244-68 297-166" id="ac"/><path d="M526-129c139 0 193-116 193-262v-154c-144 3-272 20-298 142-6 28-11 61-11 98 1 103 24 176 116 176zm193-524c-6-153 30-348-127-346-115 1-136 103-137 221-92 0-160-13-207-31-80-31-88-141-36-202 75-88 224-112 388-113 266-2 430 83 430 348v522c-3 99 29 152 131 145V0H780l-43-141h-18C646-52 578 24 414 20 206 14 92-101 92-313c0-254 188-323 459-334" id="ad"/><path d="M508-324c1 114 29 177 135 179 53 0 102-9 145-19v133C712 3 611 19 498 20 289 22 197-91 197-303v-655H43v-105c87 2 160-42 201-86 42-44 73-112 94-203h170v254h262v140H508v634" id="ae"/><path d="M682-968c-75-53-166-16-210 62-32 57-53 140-56 249h354c-1-134-12-257-88-311zm4 835c147 0 236-69 289-166 63 29 71 123 31 183C939-17 799 20 627 20 270 20 96-185 96-543c0-359 153-581 508-581 315 0 475 175 479 493v105H412c10 217 60 393 274 393" id="af"/><path d="M147 250L0 248l446-1804h144" id="ag"/><path d="M1161-238c-4 102 49 136 154 129V0H907l-45-145h-10C792-36 695 23 528 20c-234-5-331-151-331-405v-459c4-105-39-151-144-145v-109h455v656c3 146 15 288 156 288 156 0 186-148 186-311v-393c3-101-53-136-154-131v-109h465v860" id="ah"/><path d="M1169-254c-4 106 37 152 144 145V0H858v-674c-2-147-22-276-164-276-152 0-178 160-178 317v391c-3 102 51 138 154 133V0H41v-109c107 5 164-34 164-141v-612c3-102-52-138-154-133v-103h430l27 146h10c58-113 144-176 313-172 157 3 265 55 310 172h18c58-115 154-175 326-172 240 4 338 149 338 395v475c-4 105 37 152 143 145V0h-455v-674c-3-152-24-276-163-276-145 0-179 143-179 293v403" id="ai"/><path d="M508 250c-2 110 76 140 190 133v109H27V383c104 5 170-31 170-133V-846c3-105-46-149-152-143v-109h401l37 160h9c59-105 150-180 313-180 324 0 420 241 420 573 0 329-93 565-412 570-159 2-247-66-307-164h-14c13 122 18 252 16 389zm0-795c0 210 7 418 209 418 69 0 115-35 147-103 57-120 56-503 0-626-33-71-78-109-145-109-201 0-211 211-211 420" id="aj"/><path d="M1169-254c-4 106 37 152 144 145V0H858v-674c-2-147-22-276-164-276-152 0-178 160-178 317v391c-3 102 51 138 154 133V0H41v-109c107 5 164-34 164-141v-1073c0-98-69-130-170-125v-108h481c-1 203 6 416-16 598h18c56-113 145-169 313-166 240 5 338 149 338 395v475" id="ak"/><path d="M1169-254c-4 106 37 152 144 145V0H858v-674c-2-147-22-276-164-276-152 0-178 160-178 317v391c-3 102 51 138 154 133V0H41v-109c107 5 164-34 164-141v-606c3-102-52-138-154-133v-109h430l27 146h10c58-113 144-175 313-172 240 5 338 149 338 395v475" id="al"/><path d="M516-246c-4 127 81 146 209 137V0H41v-109c110 5 164-37 164-147v-594c3-104-49-145-154-139v-109h414l41 160h10c46-115 125-184 289-184 142 0 235 41 235 166 0 137-111 200-260 198-1-92-10-170-100-170-129 0-152 146-162 271-11 134 3 274-2 411" id="am"/><g id="e"><use transform="matrix(0.026041666666666668,0,0,0.026041666666666668,0,0)" xlink:href="#ab"/><use transform="matrix(0.026041666666666668,0,0,0.026041666666666668,40.911458333333336,0)" xlink:href="#M"/><use transform="matrix(0.026041666666666668,0,0,0.026041666666666668,91.69270833333334,0)" xlink:href="#O"/><use transform="matrix(0.026041666666666668,0,0,0.026041666666666668,128.33333333333334,0)" xlink:href="#ac"/><use transform="matrix(0.026041666666666668,0,0,0.026041666666666668,156.43229166666669,0)" xlink:href="#ad"/><use transform="matrix(0.026041666666666668,0,0,0.026041666666666668,187.86458333333334,0)" xlink:href="#ae"/><use transform="matrix(0.026041666666666668,0,0,0.026041666666666668,208.93229166666666,0)" xlink:href="#af"/><use transform="matrix(0.026041666666666668,0,0,0.026041666666666668,239.375,0)" xlink:href="#ag"/><use transform="matrix(0.026041666666666668,0,0,0.026041666666666668,254.73958333333334,0)" xlink:href="#J"/><use transform="matrix(0.026041666666666668,0,0,0.026041666666666668,290.5729166666667,0)" xlink:href="#ah"/><use transform="matrix(0.026041666666666668,0,0,0.026041666666666668,326.14583333333337,0)" xlink:href="#ai"/><use transform="matrix(0.026041666666666668,0,0,0.026041666666666668,378.20312500000006,0)" xlink:href="#aj"/><use transform="matrix(0.026041666666666668,0,0,0.026041666666666668,412.60416666666674,0)" xlink:href="#ak"/><use transform="matrix(0.026041666666666668,0,0,0.026041666666666668,448.1770833333334,0)" xlink:href="#ah"/><use transform="matrix(0.026041666666666668,0,0,0.026041666666666668,483.7500000000001,0)" xlink:href="#al"/><use transform="matrix(0.026041666666666668,0,0,0.026041666666666668,518.8020833333335,0)" xlink:href="#ae"/><use transform="matrix(0.026041666666666668,0,0,0.026041666666666668,539.8697916666667,0)" xlink:href="#af"/><use transform="matrix(0.026041666666666668,0,0,0.026041666666666668,570.3125000000001,0)" xlink:href="#am"/></g><path d="M1151-1229c2-81-26-125-104-125h-86v-108h536v108h-88c-81-2-104 49-104 133v799c-2 313-193 441-512 442-346 1-568-121-568-466v-783c1-80-27-125-104-125H33v-108h706v108h-86c-81-2-104 49-104 133v791c-2 207 100 306 305 305 196-1 297-103 297-301v-803" id="an"/><path d="M686-1462c328 4 559 115 559 434 0 359-281 480-674 469v328c-1 81 30 122 109 122h125V0H57v-109h86c83 3 106-49 105-133v-987c1-82-26-125-105-125H57v-108h629zm215 442c0-195-55-324-250-321h-80v663h50c215 5 280-127 280-342" id="ao"/><g id="f"><use transform="matrix(0.026041666666666668,0,0,0.026041666666666668,0,0)" xlink:href="#Q"/><use transform="matrix(0.026041666666666668,0,0,0.026041666666666668,21.328125,0)" xlink:href="#ab"/><use transform="matrix(0.026041666666666668,0,0,0.026041666666666668,62.239583333333336,0)" xlink:href="#T"/><use transform="matrix(0.026041666666666668,0,0,0.026041666666666668,97.05729166666667,0)" xlink:href="#ab"/><use transform="matrix(0.026041666666666668,0,0,0.026041666666666668,137.96875,0)" xlink:href="#an"/><use transform="matrix(0.026041666666666668,0,0,0.026041666666666668,177.8125,0)" xlink:href="#ao"/><use transform="matrix(0.026041666666666668,0,0,0.026041666666666668,211.84895833333334,0)" xlink:href="#R"/><use transform="matrix(0.026041666666666668,0,0,0.026041666666666668,246.71875,0)" xlink:href="#L"/><use transform="matrix(0.026041666666666668,0,0,0.026041666666666668,268.0989583333333,0)" xlink:href="#Z"/><use transform="matrix(0.026041666666666668,0,0,0.026041666666666668,303.7239583333333,0)" xlink:href="#N"/><use transform="matrix(0.026041666666666668,0,0,0.026041666666666668,340.6770833333333,0)" xlink:href="#U"/><use transform="matrix(0.026041666666666668,0,0,0.026041666666666668,375.49479166666663,0)" xlink:href="#L"/><use transform="matrix(0.026041666666666668,0,0,0.026041666666666668,396.87499999999994,0)" xlink:href="#aa"/><use transform="matrix(0.026041666666666668,0,0,0.026041666666666668,438.8541666666666,0)" xlink:href="#S"/><use transform="matrix(0.026041666666666668,0,0,0.026041666666666668,480.8854166666666,0)" xlink:href="#V"/></g><path d="M24 0v-248h52v208h133V0H24" id="ap"/><path d="M199 0l-22-63H83L61 0H9l90-248h61L250 0h-51zm-33-102l-36-108c-10 38-24 72-36 108h72" id="aq"/><path d="M182-130c37 4 62 22 62 59C244 23 116-4 24 0v-248c84 5 203-23 205 63 0 31-19 50-47 55zM76-148c40-3 101 13 101-30 0-44-60-28-101-31v61zm0 110c48-3 116 14 116-37 0-48-69-32-116-35v72" id="ar"/><path d="M24 0v-248h195v40H76v63h132v40H76v65h150V0H24" id="as"/><path d="M169-182c-1-43-94-46-97-3 18 66 151 10 154 114 3 95-165 93-204 36-6-8-10-19-12-30l50-8c3 46 112 56 116 5-17-69-150-10-154-114-4-87 153-88 188-35 5 8 8 18 10 28" id="at"/><g id="g"><use transform="matrix(0.1111111111111111,0,0,0.1111111111111111,0,0)" xlink:href="#ap"/><use transform="matrix(0.1111111111111111,0,0,0.1111111111111111,24.333333333333332,0)" xlink:href="#aq"/><use transform="matrix(0.1111111111111111,0,0,0.1111111111111111,53.11111111111111,0)" xlink:href="#ar"/><use transform="matrix(0.1111111111111111,0,0,0.1111111111111111,81.88888888888889,0)" xlink:href="#as"/><use transform="matrix(0.1111111111111111,0,0,0.1111111111111111,108.55555555555554,0)" xlink:href="#ap"/><use transform="matrix(0.1111111111111111,0,0,0.1111111111111111,132.88888888888889,0)" xlink:href="#at"/></g><path d="M24 0v-248h52V0H24" id="au"/><path d="M175 0L67-191c6 58 2 128 3 191H24v-248h59L193-55c-6-58-2-129-3-193h46V0h-61" id="av"/><path d="M24-248c93 1 206-16 204 79-1 75-69 88-152 82V0H24v-248zm52 121c47 0 100 7 100-41 0-47-54-39-100-39v80" id="aw"/><path d="M238-95c0 69-44 99-111 99C63 4 22-25 22-93v-155h51v151c-1 38 19 59 55 60 90 1 49-130 58-211h52v153" id="ax"/><path d="M136-208V0H84v-208H4v-40h212v40h-80" id="ay"/><g id="h"><use transform="matrix(0.08641975308641976,0,0,0.08641975308641976,0,0)" xlink:href="#au"/><use transform="matrix(0.08641975308641976,0,0,0.08641975308641976,8.641975308641976,0)" xlink:href="#av"/><use transform="matrix(0.08641975308641976,0,0,0.08641975308641976,31.024691358024693,0)" xlink:href="#aw"/><use transform="matrix(0.08641975308641976,0,0,0.08641975308641976,51.765432098765444,0)" xlink:href="#ax"/><use transform="matrix(0.08641975308641976,0,0,0.08641975308641976,74.14814814814817,0)" xlink:href="#ay"/></g><path d="M24-248c120-7 223 5 221 122C244-46 201 0 124 0H24v-248zM76-40c74 7 117-18 117-86 0-67-45-88-117-82v168" id="az"/><g id="i"><use transform="matrix(0.08641975308641976,0,0,0.08641975308641976,0,0)" xlink:href="#az"/><use transform="matrix(0.08641975308641976,0,0,0.08641975308641976,22.38271604938272,0)" xlink:href="#aq"/><use transform="matrix(0.08641975308641976,0,0,0.08641975308641976,42.4320987654321,0)" xlink:href="#ay"/><use transform="matrix(0.08641975308641976,0,0,0.08641975308641976,59.0246913580247,0)" xlink:href="#aq"/></g><path d="M140-251c80 0 125 45 125 126 0 70-33 111-92 124 6 28 34 38 68 31l-1 36C177 83 129 55 120 2 51-6 15-50 15-125c0-81 44-126 125-126zm-1 214c52 0 73-35 73-88 0-50-21-86-72-86-52 0-73 35-73 86s22 88 72 88" id="aA"/><path d="M146-102V0H94v-102L6-248h54l60 105 60-105h54" id="aB"/><g id="j"><use transform="matrix(0.08641975308641976,0,0,0.08641975308641976,0,0)" xlink:href="#aA"/><use transform="matrix(0.08641975308641976,0,0,0.08641975308641976,24.19753086419753,0)" xlink:href="#ax"/><use transform="matrix(0.08641975308641976,0,0,0.08641975308641976,46.580246913580254,0)" xlink:href="#aq"/><use transform="matrix(0.08641975308641976,0,0,0.08641975308641976,68.96296296296298,0)" xlink:href="#ap"/><use transform="matrix(0.08641975308641976,0,0,0.08641975308641976,87.8888888888889,0)" xlink:href="#au"/><use transform="matrix(0.08641975308641976,0,0,0.08641975308641976,96.53086419753087,0)" xlink:href="#ay"/><use transform="matrix(0.08641975308641976,0,0,0.08641975308641976,115.4567901234568,0)" xlink:href="#aB"/></g><path d="M67-125c0 53 21 87 73 88 37 1 54-22 65-47l45 17C233-25 199 4 140 4 58 4 20-42 15-125 8-235 124-281 211-232c18 10 29 29 36 50l-46 12c-8-25-30-41-62-41-52 0-71 34-72 86" id="aC"/><path d="M140-251c80 0 125 45 125 126S219 4 139 4C58 4 15-44 15-125s44-126 125-126zm-1 214c52 0 73-35 73-88 0-50-21-86-72-86-52 0-73 35-73 86s22 88 72 88" id="aD"/><path d="M240-174c0 40-23 61-54 70L253 0h-59l-57-94H76V0H24v-248c93 4 217-23 216 74zM76-134c48-2 112 12 112-38 0-48-66-32-112-35v73" id="aE"/><g id="k"><use transform="matrix(0.08641975308641976,0,0,0.08641975308641976,0,0)" xlink:href="#aC"/><use transform="matrix(0.08641975308641976,0,0,0.08641975308641976,22.38271604938272,0)" xlink:href="#aD"/><use transform="matrix(0.08641975308641976,0,0,0.08641975308641976,46.580246913580254,0)" xlink:href="#av"/><use transform="matrix(0.08641975308641976,0,0,0.08641975308641976,68.96296296296298,0)" xlink:href="#ay"/><use transform="matrix(0.08641975308641976,0,0,0.08641975308641976,87.8888888888889,0)" xlink:href="#aE"/><use transform="matrix(0.08641975308641976,0,0,0.08641975308641976,110.27160493827162,0)" xlink:href="#aD"/><use transform="matrix(0.08641975308641976,0,0,0.08641975308641976,134.46913580246917,0)" xlink:href="#ap"/></g><path d="M230 0l2-204L168 0h-37L68-204 70 0H24v-248h70l56 185 57-185h69V0h-46" id="aF"/><path d="M67-125c0 54 23 88 75 88 28 0 53-7 68-21v-34h-60v-39h108v91C232-14 192 4 140 4 58 4 20-42 15-125 8-236 126-280 215-234c19 10 29 26 37 47l-47 15c-11-23-29-39-63-39-53 1-75 33-75 86" id="aG"/><g id="l"><use transform="matrix(0.08641975308641976,0,0,0.08641975308641976,0,0)" xlink:href="#ay"/><use transform="matrix(0.08641975308641976,0,0,0.08641975308641976,18.925925925925927,0)" xlink:href="#aE"/><use transform="matrix(0.08641975308641976,0,0,0.08641975308641976,41.308641975308646,0)" xlink:href="#au"/><use transform="matrix(0.08641975308641976,0,0,0.08641975308641976,49.95061728395062,0)" xlink:href="#aF"/><use transform="matrix(0.08641975308641976,0,0,0.08641975308641976,75.79012345679013,0)" xlink:href="#aF"/><use transform="matrix(0.08641975308641976,0,0,0.08641975308641976,101.62962962962963,0)" xlink:href="#au"/><use transform="matrix(0.08641975308641976,0,0,0.08641975308641976,110.27160493827162,0)" xlink:href="#av"/><use transform="matrix(0.08641975308641976,0,0,0.08641975308641976,132.65432098765433,0)" xlink:href="#aG"/></g><path d="M182 0l-62-99L58 0H3l86-130-79-118h55l55 88 55-88h55l-75 118L237 0h-55" id="aH"/><g id="m"><use transform="matrix(0.08641975308641976,0,0,0.08641975308641976,0,0)" xlink:href="#au"/><use transform="matrix(0.08641975308641976,0,0,0.08641975308641976,8.641975308641976,0)" xlink:href="#av"/><use transform="matrix(0.08641975308641976,0,0,0.08641975308641976,31.024691358024693,0)" xlink:href="#az"/><use transform="matrix(0.08641975308641976,0,0,0.08641975308641976,53.407407407407426,0)" xlink:href="#as"/><use transform="matrix(0.08641975308641976,0,0,0.08641975308641976,74.14814814814817,0)" xlink:href="#aH"/><use transform="matrix(0.08641975308641976,0,0,0.08641975308641976,94.88888888888891,0)" xlink:href="#au"/><use transform="matrix(0.08641975308641976,0,0,0.08641975308641976,103.53086419753089,0)" xlink:href="#av"/><use transform="matrix(0.08641975308641976,0,0,0.08641975308641976,125.91358024691361,0)" xlink:href="#aG"/></g><g id="n"><use transform="matrix(0.08641975308641976,0,0,0.08641975308641976,0,0)" xlink:href="#aq"/><use transform="matrix(0.08641975308641976,0,0,0.08641975308641976,22.38271604938272,0)" xlink:href="#ap"/><use transform="matrix(0.08641975308641976,0,0,0.08641975308641976,41.308641975308646,0)" xlink:href="#au"/><use transform="matrix(0.08641975308641976,0,0,0.08641975308641976,49.95061728395062,0)" xlink:href="#aG"/><use transform="matrix(0.08641975308641976,0,0,0.08641975308641976,74.14814814814815,0)" xlink:href="#av"/><use transform="matrix(0.08641975308641976,0,0,0.08641975308641976,96.53086419753087,0)" xlink:href="#aF"/><use transform="matrix(0.08641975308641976,0,0,0.08641975308641976,122.37037037037038,0)" xlink:href="#as"/><use transform="matrix(0.08641975308641976,0,0,0.08641975308641976,143.11111111111111,0)" xlink:href="#av"/><use transform="matrix(0.08641975308641976,0,0,0.08641975308641976,165.49382716049382,0)" xlink:href="#ay"/></g><g id="o"><use transform="matrix(0.08641975308641976,0,0,0.08641975308641976,0,0)" xlink:href="#az"/><use transform="matrix(0.08641975308641976,0,0,0.08641975308641976,22.38271604938272,0)" xlink:href="#as"/><use transform="matrix(0.08641975308641976,0,0,0.08641975308641976,43.12345679012346,0)" xlink:href="#az"/><use transform="matrix(0.08641975308641976,0,0,0.08641975308641976,65.50617283950618,0)" xlink:href="#ax"/><use transform="matrix(0.08641975308641976,0,0,0.08641975308641976,87.8888888888889,0)" xlink:href="#aw"/><use transform="matrix(0.08641975308641976,0,0,0.08641975308641976,108.62962962962965,0)" xlink:href="#ap"/><use transform="matrix(0.08641975308641976,0,0,0.08641975308641976,127.55555555555557,0)" xlink:href="#au"/><use transform="matrix(0.08641975308641976,0,0,0.08641975308641976,136.19753086419755,0)" xlink:href="#aC"/><use transform="matrix(0.08641975308641976,0,0,0.08641975308641976,158.58024691358025,0)" xlink:href="#aq"/><use transform="matrix(0.08641975308641976,0,0,0.08641975308641976,178.62962962962962,0)" xlink:href="#ay"/><use transform="matrix(0.08641975308641976,0,0,0.08641975308641976,197.55555555555554,0)" xlink:href="#au"/><use transform="matrix(0.08641975308641976,0,0,0.08641975308641976,206.19753086419752,0)" xlink:href="#aD"/><use transform="matrix(0.08641975308641976,0,0,0.08641975308641976,230.39506172839504,0)" xlink:href="#av"/></g><path d="M186 0v-106H76V0H24v-248h52v99h110v-99h50V0h-50" id="aI"/><g id="p"><use transform="matrix(0.08641975308641976,0,0,0.08641975308641976,0,0)" xlink:href="#aF"/><use transform="matrix(0.08641975308641976,0,0,0.08641975308641976,25.83950617283951,0)" xlink:href="#as"/><use transform="matrix(0.08641975308641976,0,0,0.08641975308641976,46.580246913580254,0)" xlink:href="#ay"/><use transform="matrix(0.08641975308641976,0,0,0.08641975308641976,65.50617283950618,0)" xlink:href="#aI"/><use transform="matrix(0.08641975308641976,0,0,0.08641975308641976,87.8888888888889,0)" xlink:href="#aB"/><use transform="matrix(0.08641975308641976,0,0,0.08641975308641976,108.62962962962965,0)" xlink:href="#ap"/><use transform="matrix(0.08641975308641976,0,0,0.08641975308641976,127.55555555555557,0)" xlink:href="#aq"/><use transform="matrix(0.08641975308641976,0,0,0.08641975308641976,147.60493827160496,0)" xlink:href="#ay"/><use transform="matrix(0.08641975308641976,0,0,0.08641975308641976,166.5308641975309,0)" xlink:href="#au"/><use transform="matrix(0.08641975308641976,0,0,0.08641975308641976,175.17283950617286,0)" xlink:href="#aD"/><use transform="matrix(0.08641975308641976,0,0,0.08641975308641976,199.37037037037038,0)" xlink:href="#av"/></g><g id="q"><use transform="matrix(0.08641975308641976,0,0,0.08641975308641976,0,0)" xlink:href="#as"/><use transform="matrix(0.08641975308641976,0,0,0.08641975308641976,20.740740740740744,0)" xlink:href="#aH"/><use transform="matrix(0.08641975308641976,0,0,0.08641975308641976,41.48148148148149,0)" xlink:href="#ay"/><use transform="matrix(0.08641975308641976,0,0,0.08641975308641976,60.407407407407426,0)" xlink:href="#aE"/><use transform="matrix(0.08641975308641976,0,0,0.08641975308641976,82.79012345679014,0)" xlink:href="#aq"/><use transform="matrix(0.08641975308641976,0,0,0.08641975308641976,105.17283950617286,0)" xlink:href="#aC"/><use transform="matrix(0.08641975308641976,0,0,0.08641975308641976,127.55555555555559,0)" xlink:href="#ay"/><use transform="matrix(0.08641975308641976,0,0,0.08641975308641976,146.48148148148152,0)" xlink:href="#au"/><use transform="matrix(0.08641975308641976,0,0,0.08641975308641976,155.1234567901235,0)" xlink:href="#aD"/><use transform="matrix(0.08641975308641976,0,0,0.08641975308641976,179.32098765432102,0)" xlink:href="#av"/></g><path d="M76-208v77h127v40H76V0H24v-248h183v40H76" id="aJ"/><g id="r"><use transform="matrix(0.08641975308641976,0,0,0.08641975308641976,0,0)" xlink:href="#az"/><use transform="matrix(0.08641975308641976,0,0,0.08641975308641976,22.38271604938272,0)" xlink:href="#au"/><use transform="matrix(0.08641975308641976,0,0,0.08641975308641976,31.024691358024693,0)" xlink:href="#aJ"/><use transform="matrix(0.08641975308641976,0,0,0.08641975308641976,49.95061728395062,0)" xlink:href="#aJ"/><use transform="matrix(0.08641975308641976,0,0,0.08641975308641976,68.87654320987654,0)" xlink:href="#as"/><use transform="matrix(0.08641975308641976,0,0,0.08641975308641976,89.61728395061729,0)" xlink:href="#aE"/><use transform="matrix(0.08641975308641976,0,0,0.08641975308641976,112.00000000000001,0)" xlink:href="#as"/><use transform="matrix(0.08641975308641976,0,0,0.08641975308641976,132.74074074074076,0)" xlink:href="#av"/><use transform="matrix(0.08641975308641976,0,0,0.08641975308641976,155.12345679012347,0)" xlink:href="#ay"/><use transform="matrix(0.08641975308641976,0,0,0.08641975308641976,174.0493827160494,0)" xlink:href="#au"/><use transform="matrix(0.08641975308641976,0,0,0.08641975308641976,182.69135802469137,0)" xlink:href="#aq"/><use transform="matrix(0.08641975308641976,0,0,0.08641975308641976,205.0740740740741,0)" xlink:href="#ap"/></g><g id="s"><use transform="matrix(0.08641975308641976,0,0,0.08641975308641976,0,0)" xlink:href="#aF"/><use transform="matrix(0.08641975308641976,0,0,0.08641975308641976,25.83950617283951,0)" xlink:href="#as"/><use transform="matrix(0.08641975308641976,0,0,0.08641975308641976,46.580246913580254,0)" xlink:href="#ay"/><use transform="matrix(0.08641975308641976,0,0,0.08641975308641976,65.50617283950618,0)" xlink:href="#aI"/><use transform="matrix(0.08641975308641976,0,0,0.08641975308641976,87.8888888888889,0)" xlink:href="#aB"/><use transform="matrix(0.08641975308641976,0,0,0.08641975308641976,108.62962962962965,0)" xlink:href="#ap"/><use transform="matrix(0.08641975308641976,0,0,0.08641975308641976,127.55555555555557,0)" xlink:href="#aq"/><use transform="matrix(0.08641975308641976,0,0,0.08641975308641976,147.60493827160496,0)" xlink:href="#ay"/><use transform="matrix(0.08641975308641976,0,0,0.08641975308641976,166.5308641975309,0)" xlink:href="#au"/><use transform="matrix(0.08641975308641976,0,0,0.08641975308641976,175.17283950617286,0)" xlink:href="#aD"/><use transform="matrix(0.08641975308641976,0,0,0.08641975308641976,199.37037037037038,0)" xlink:href="#av"/></g><g id="t"><use transform="matrix(0.08641975308641976,0,0,0.08641975308641976,0,0)" xlink:href="#aq"/><use transform="matrix(0.08641975308641976,0,0,0.08641975308641976,22.38271604938272,0)" xlink:href="#av"/><use transform="matrix(0.08641975308641976,0,0,0.08641975308641976,44.76543209876544,0)" xlink:href="#aq"/><use transform="matrix(0.08641975308641976,0,0,0.08641975308641976,67.14814814814815,0)" xlink:href="#ap"/><use transform="matrix(0.08641975308641976,0,0,0.08641975308641976,83.22222222222223,0)" xlink:href="#aB"/><use transform="matrix(0.08641975308641976,0,0,0.08641975308641976,103.96296296296298,0)" xlink:href="#at"/><use transform="matrix(0.08641975308641976,0,0,0.08641975308641976,124.70370370370372,0)" xlink:href="#au"/><use transform="matrix(0.08641975308641976,0,0,0.08641975308641976,133.3456790123457,0)" xlink:href="#at"/></g><path d="M248-1229c1-82-26-125-105-125H57v-108h1135l10 377h-143c-7-81-14-179-59-216-28-22-61-36-103-36H571v559h486v121H571v415c-1 84 24 133 107 133h127V0H57v-109h86c79 3 105-42 105-122v-998" id="aK"/><path d="M113-735c0-470 225-750 696-750 351 0 554 176 645 443 30 92 45 195 45 309 0 401-175 649-498 733 21 221 88 381 328 373v119c-206 10-377-14-491-112-96-82-168-202-179-372-365-61-546-322-546-743zm533-575c-200 121-216 527-170 839 29 198 110 358 331 358 307 0 348-302 348-620 0-257-33-477-185-577-82-56-239-51-324 0" id="aL"/><path d="M270-311c169-5 225 193 169 351-53 150-181 230-347 275V209c83-35 173-54 180-160-8-63-78-66-110-107-22-28-39-60-39-112 0-89 62-139 147-141" id="aM"/><g id="u"><use transform="matrix(0.026041666666666668,0,0,0.026041666666666668,0,0)" xlink:href="#aK"/><use transform="matrix(0.026041666666666668,0,0,0.026041666666666668,29.401041666666668,0)" xlink:href="#N"/><use transform="matrix(0.026041666666666668,0,0,0.026041666666666668,69.55729166666667,0)" xlink:href="#K"/><use transform="matrix(0.026041666666666668,0,0,0.026041666666666668,99.73958333333334,0)" xlink:href="#U"/><use transform="matrix(0.026041666666666668,0,0,0.026041666666666668,134.03645833333334,0)" xlink:href="#aL"/><use transform="matrix(0.026041666666666668,0,0,0.026041666666666668,176.015625,0)" xlink:href="#Z"/><use transform="matrix(0.026041666666666668,0,0,0.026041666666666668,211.640625,0)" xlink:href="#aM"/></g><g id="v"><use transform="matrix(0.026041666666666668,0,0,0.026041666666666668,0,0)" xlink:href="#M"/><use transform="matrix(0.026041666666666668,0,0,0.026041666666666668,50.78125,0)" xlink:href="#an"/><use transform="matrix(0.026041666666666668,0,0,0.026041666666666668,90.625,0)" xlink:href="#R"/><use transform="matrix(0.026041666666666668,0,0,0.026041666666666668,122.29166666666667,0)" xlink:href="#U"/><use transform="matrix(0.026041666666666668,0,0,0.026041666666666668,157.109375,0)" xlink:href="#L"/><use transform="matrix(0.026041666666666668,0,0,0.026041666666666668,178.48958333333334,0)" xlink:href="#aL"/><use transform="matrix(0.026041666666666668,0,0,0.026041666666666668,220.46875,0)" xlink:href="#Z"/></g><path d="M877-236c-2 86 27 127 114 127h101V0H336v-109h96c87 5 119-37 119-124v-285c-136-259-267-522-407-778-25-45-70-62-144-58v-108h686v108c-113-14-188 43-148 148 76 198 195 366 263 571 65-169 152-334 229-495 22-45 33-75 35-123 3-94-81-105-182-101v-108h536v108c-133-15-150 74-194 160L877-516v280" id="aN"/><path d="M918-340C918-83 735 20 473 20 291 20 148-13 84-124c-28-48-33-130-4-176 31-52 94-75 172-75 4 159 67 268 221 275 134 7 248-76 191-200-56-121-266-138-386-206C171-566 82-637 82-797c0-243 192-325 440-325 157 0 279 31 339 121 38 57 21 139-29 174-33 23-85 36-160 36 1-128-56-215-180-215-113 0-209 80-154 186 62 119 269 132 394 204 99 57 186 127 186 276" id="aO"/><g id="w"><use transform="matrix(0.015190972222222224,0,0,0.015190972222222224,0,0)" xlink:href="#aN"/><use transform="matrix(0.015190972222222224,0,0,0.015190972222222224,19.383680555555557,0)" xlink:href="#af"/><use transform="matrix(0.015190972222222224,0,0,0.015190972222222224,37.141927083333336,0)" xlink:href="#aO"/></g><g id="x"><use transform="matrix(0.026041666666666668,0,0,0.026041666666666668,0,0)" xlink:href="#U"/><use transform="matrix(0.026041666666666668,0,0,0.026041666666666668,34.817708333333336,0)" xlink:href="#O"/><use transform="matrix(0.026041666666666668,0,0,0.026041666666666668,72.52604166666667,0)" xlink:href="#L"/><use transform="matrix(0.026041666666666668,0,0,0.026041666666666668,93.90625,0)" xlink:href="#M"/><use transform="matrix(0.026041666666666668,0,0,0.026041666666666668,144.6875,0)" xlink:href="#I"/><use transform="matrix(0.026041666666666668,0,0,0.026041666666666668,185.703125,0)" xlink:href="#N"/><use transform="matrix(0.026041666666666668,0,0,0.026041666666666668,225.859375,0)" xlink:href="#R"/><use transform="matrix(0.026041666666666668,0,0,0.026041666666666668,260.7291666666667,0)" xlink:href="#aa"/><use transform="matrix(0.026041666666666668,0,0,0.026041666666666668,302.70833333333337,0)" xlink:href="#O"/><use transform="matrix(0.026041666666666668,0,0,0.026041666666666668,340.4166666666667,0)" xlink:href="#T"/></g><path d="M631-1124c358 0 526 209 528 571 2 373-172 573-534 573C267 20 98-190 96-553c-2-374 172-571 535-571zM527-966c-131 91-126 390-101 605 16 136 58 252 203 252 203 0 213-228 213-444 0-180-15-339-115-413-51-37-148-36-200 0" id="aP"/><g id="y"><use transform="matrix(0.015190972222222224,0,0,0.015190972222222224,0,0)" xlink:href="#S"/><use transform="matrix(0.015190972222222224,0,0,0.015190972222222224,24.214409722222225,0)" xlink:href="#aP"/></g><g id="z"><use transform="matrix(0.026041666666666668,0,0,0.026041666666666668,0,0)" xlink:href="#J"/><use transform="matrix(0.026041666666666668,0,0,0.026041666666666668,35.833333333333336,0)" xlink:href="#L"/><use transform="matrix(0.026041666666666668,0,0,0.026041666666666668,57.21354166666667,0)" xlink:href="#K"/><use transform="matrix(0.026041666666666668,0,0,0.026041666666666668,88.46354166666667,0)" xlink:href="#M"/><use transform="matrix(0.026041666666666668,0,0,0.026041666666666668,139.24479166666669,0)" xlink:href="#N"/><use transform="matrix(0.026041666666666668,0,0,0.026041666666666668,179.40104166666669,0)" xlink:href="#O"/><use transform="matrix(0.026041666666666668,0,0,0.026041666666666668,217.109375,0)" xlink:href="#P"/></g><g id="A"><use transform="matrix(0.026041666666666668,0,0,0.026041666666666668,0,0)" xlink:href="#Q"/><use transform="matrix(0.026041666666666668,0,0,0.026041666666666668,21.328125,0)" xlink:href="#I"/><use transform="matrix(0.026041666666666668,0,0,0.026041666666666668,62.34375,0)" xlink:href="#T"/><use transform="matrix(0.026041666666666668,0,0,0.026041666666666668,97.16145833333334,0)" xlink:href="#S"/><use transform="matrix(0.026041666666666668,0,0,0.026041666666666668,139.19270833333334,0)" xlink:href="#aa"/><use transform="matrix(0.026041666666666668,0,0,0.026041666666666668,181.171875,0)" xlink:href="#M"/><use transform="matrix(0.026041666666666668,0,0,0.026041666666666668,231.953125,0)" xlink:href="#T"/></g><g id="B"><use transform="matrix(0.026041666666666668,0,0,0.026041666666666668,0,0)" xlink:href="#ao"/><use transform="matrix(0.026041666666666668,0,0,0.026041666666666668,34.036458333333336,0)" xlink:href="#O"/><use transform="matrix(0.026041666666666668,0,0,0.026041666666666668,71.74479166666667,0)" xlink:href="#T"/><use transform="matrix(0.026041666666666668,0,0,0.026041666666666668,106.5625,0)" xlink:href="#ao"/><use transform="matrix(0.026041666666666668,0,0,0.026041666666666668,138.46354166666666,0)" xlink:href="#N"/><use transform="matrix(0.026041666666666668,0,0,0.026041666666666668,178.61979166666666,0)" xlink:href="#O"/><use transform="matrix(0.026041666666666668,0,0,0.026041666666666668,215.26041666666669,0)" xlink:href="#N"/><use transform="matrix(0.026041666666666668,0,0,0.026041666666666668,252.21354166666669,0)" xlink:href="#U"/><use transform="matrix(0.026041666666666668,0,0,0.026041666666666668,287.03125,0)" xlink:href="#L"/><use transform="matrix(0.026041666666666668,0,0,0.026041666666666668,308.4114583333333,0)" xlink:href="#aa"/><use transform="matrix(0.026041666666666668,0,0,0.026041666666666668,350.390625,0)" xlink:href="#S"/><use transform="matrix(0.026041666666666668,0,0,0.026041666666666668,392.421875,0)" xlink:href="#V"/></g><path fill="#282c33" d="M733-1462c467 5 725 237 725 704 0 360-150 596-410 702C958-19 852 0 733 0H57v-109h86c83 3 106-49 105-133v-987c1-82-26-125-105-125H57v-108h676zm379 704c0-195-36-341-108-436s-177-143-316-143H571v1210c120 2 220 3 300-43 173-99 240-314 241-588" id="aQ"/><path fill="#282c33" d="M866-109c86 4 168 3 168-79 1-32-10-65-18-88l-72-205H446c-28 97-84 180-84 293 0 85 91 82 179 79V0H8v-109c122 10 157-61 189-149l444-1204h281l428 1206c31 88 67 157 192 147V0H866v-109zm37-497c-67-212-140-417-194-643-69 219-146 429-220 643h414" id="aR"/><path fill="#282c33" d="M401-109c83 3 106-49 105-133v-1095c-128 5-285-27-320 84-17 54-19 125-28 188H20l11-397h1276l10 397h-137c-16-108-6-236-108-262-64-16-162-7-241-10v1095c-1 84 23 133 105 133h86V0H315v-109h86" id="aS"/><g id="C"><use transform="matrix(0.026041666666666668,0,0,0.026041666666666668,0,0)" xlink:href="#aQ"/><use transform="matrix(0.026041666666666668,0,0,0.026041666666666668,39.84375,0)" xlink:href="#aR"/><use transform="matrix(0.026041666666666668,0,0,0.026041666666666668,76.796875,0)" xlink:href="#aS"/><use transform="matrix(0.026041666666666668,0,0,0.026041666666666668,108.41145833333334,0)" xlink:href="#aR"/></g><path fill="#282c33" d="M1082-1236c21-66-6-118-74-118H901v-108h529v108c-55 5-123-15-146 28-19 36-33 72-51 122L815 0H610L174-1255c-24-69-74-108-174-99v-108h676v108c-80 1-175-14-174 68 0 27 11 68 18 88 75 229 155 454 226 685 18 59 32 128 40 194 81-323 197-610 296-917" id="aT"/><path fill="#282c33" d="M573-242c-1 84 23 133 105 133h86V0H57v-109h86c83 3 106-49 105-133v-978c1-84-22-133-105-133H57v-109h707v109h-86c-82-2-106 49-105 133v978" id="aU"/><path fill="#282c33" d="M571-1358c-151-6-245 124-188 270 69 176 346 212 503 314 119 77 212 161 212 346 0 232-143 355-326 415-190 62-490 28-608-60-76-57-135-174-84-282 33-69 111-102 213-102 4 206 81 355 280 355 151 0 254-75 254-222 0-135-93-184-191-234-232-119-539-172-534-513 3-214 133-332 302-383 213-65 522-27 610 116 45 73 23 177-36 214-47 29-110 49-190 49-8-151-64-277-217-283" id="aV"/><path fill="#282c33" d="M1151-1229c2-81-26-125-104-125h-86v-108h536v108h-88c-81-2-104 49-104 133v799c-2 313-193 441-512 442-346 1-568-121-568-466v-783c1-80-27-125-104-125H33v-108h706v108h-86c-81-2-104 49-104 133v791c-2 207 100 306 305 305 196-1 297-103 297-301v-803" id="aW"/><path fill="#282c33" d="M678-1354c-79-2-106 44-105 125v1104h381c170 0 166-193 203-332h115L1257 0H57v-109h86c83 3 106-49 105-133v-979c1-84-22-133-105-133H57v-108h707v108h-86" id="aX"/><path fill="#282c33" d="M1229-1358L459-125h442c143 2 203-76 215-205l10-92h148L1264 0H86v-102l768-1235H451c-169-10-165 149-179 297H125l10-422h1094v104" id="aY"/><path fill="#282c33" d="M113-735c0-470 225-750 696-750 351 0 554 176 645 443 60 178 61 438 0 617-92 268-294 445-647 445-471 0-694-285-694-755zm533-575c-200 121-216 527-170 839 29 198 110 358 331 358 307 0 348-302 348-620 0-257-33-477-185-577-82-56-239-51-324 0" id="aZ"/><path fill="#282c33" d="M1493-1354c-81-2-104 49-104 133V0h-189L401-1128v886c0 84 23 133 105 133h86V0H57v-109h86c82 2 105-49 105-133v-987c1-81-27-125-105-125H57v-108h455l723 1022v-789c1-81-27-125-105-125h-86v-108h535v108h-86" id="ba"/><g id="D"><use transform="matrix(0.026041666666666668,0,0,0.026041666666666668,0,0)" xlink:href="#aT"/><use transform="matrix(0.026041666666666668,0,0,0.026041666666666668,37.239583333333336,0)" xlink:href="#aU"/><use transform="matrix(0.026041666666666668,0,0,0.026041666666666668,58.61979166666667,0)" xlink:href="#aV"/><use transform="matrix(0.026041666666666668,0,0,0.026041666666666668,89.86979166666667,0)" xlink:href="#aW"/><use transform="matrix(0.026041666666666668,0,0,0.026041666666666668,129.71354166666669,0)" xlink:href="#aX"/><use transform="matrix(0.026041666666666668,0,0,0.026041666666666668,164.58333333333337,0)" xlink:href="#aU"/><use transform="matrix(0.026041666666666668,0,0,0.026041666666666668,185.9635416666667,0)" xlink:href="#aY"/><use transform="matrix(0.026041666666666668,0,0,0.026041666666666668,221.48437500000006,0)" xlink:href="#aR"/><use transform="matrix(0.026041666666666668,0,0,0.026041666666666668,258.43750000000006,0)" xlink:href="#aS"/><use transform="matrix(0.026041666666666668,0,0,0.026041666666666668,293.25520833333337,0)" xlink:href="#aU"/><use transform="matrix(0.026041666666666668,0,0,0.026041666666666668,314.6354166666667,0)" xlink:href="#aZ"/><use transform="matrix(0.026041666666666668,0,0,0.026041666666666668,356.61458333333337,0)" xlink:href="#ba"/></g><g id="E"><use transform="matrix(0.026041666666666668,0,0,0.026041666666666668,0,0)" xlink:href="#L"/><use transform="matrix(0.026041666666666668,0,0,0.026041666666666668,21.380208333333336,0)" xlink:href="#S"/><use transform="matrix(0.026041666666666668,0,0,0.026041666666666668,63.411458333333336,0)" xlink:href="#U"/><use transform="matrix(0.026041666666666668,0,0,0.026041666666666668,98.22916666666667,0)" xlink:href="#T"/><use transform="matrix(0.026041666666666668,0,0,0.026041666666666668,133.046875,0)" xlink:href="#I"/><use transform="matrix(0.026041666666666668,0,0,0.026041666666666668,174.0625,0)" xlink:href="#O"/><use transform="matrix(0.026041666666666668,0,0,0.026041666666666668,210.703125,0)" xlink:href="#N"/><use transform="matrix(0.026041666666666668,0,0,0.026041666666666668,247.65625,0)" xlink:href="#U"/><use transform="matrix(0.026041666666666668,0,0,0.026041666666666668,282.4739583333333,0)" xlink:href="#L"/><use transform="matrix(0.026041666666666668,0,0,0.026041666666666668,303.85416666666663,0)" xlink:href="#aa"/><use transform="matrix(0.026041666666666668,0,0,0.026041666666666668,345.8333333333333,0)" xlink:href="#S"/></g><g id="F"><use transform="matrix(0.026041666666666668,0,0,0.026041666666666668,0,0)" xlink:href="#Q"/><use transform="matrix(0.026041666666666668,0,0,0.026041666666666668,21.328125,0)" xlink:href="#I"/><use transform="matrix(0.026041666666666668,0,0,0.026041666666666668,62.34375,0)" xlink:href="#T"/><use transform="matrix(0.026041666666666668,0,0,0.026041666666666668,97.16145833333334,0)" xlink:href="#S"/><use transform="matrix(0.026041666666666668,0,0,0.026041666666666668,139.19270833333334,0)" xlink:href="#T"/></g><g id="G"><use transform="matrix(0.026041666666666668,0,0,0.026041666666666668,0,0)" xlink:href="#T"/><use transform="matrix(0.026041666666666668,0,0,0.026041666666666668,34.817708333333336,0)" xlink:href="#Y"/><use transform="matrix(0.026041666666666668,0,0,0.026041666666666668,73.85416666666667,0)" xlink:href="#ao"/><use transform="matrix(0.026041666666666668,0,0,0.026041666666666668,107.890625,0)" xlink:href="#O"/><use transform="matrix(0.026041666666666668,0,0,0.026041666666666668,145.59895833333334,0)" xlink:href="#T"/><use transform="matrix(0.026041666666666668,0,0,0.026041666666666668,180.41666666666669,0)" xlink:href="#K"/><use transform="matrix(0.026041666666666668,0,0,0.026041666666666668,211.66666666666669,0)" xlink:href="#K"/><use transform="matrix(0.026041666666666668,0,0,0.026041666666666668,242.91666666666669,0)" xlink:href="#L"/><use transform="matrix(0.026041666666666668,0,0,0.026041666666666668,264.296875,0)" xlink:href="#aa"/><use transform="matrix(0.026041666666666668,0,0,0.026041666666666668,306.2760416666667,0)" xlink:href="#S"/><use transform="matrix(0.026041666666666668,0,0,0.026041666666666668,348.3072916666667,0)" xlink:href="#V"/></g></defs></g></svg>